<?xml version="1.0" encoding="UTF-8" standalone="no" ?>
<!DOCTYPE svg PUBLIC "-//W3C//DTD SVG 1.1//EN" "http://www.w3.org/Graphics/SVG/1.1/DTD/svg11.dtd">
<svg xmlns="http://www.w3.org/2000/svg" xmlns:xlink="http://www.w3.org/1999/xlink" version="1.1" width="1280" height="1024" viewBox="0 0 1280 1024" xml:space="preserve">
<desc>Created with Fabric.js 4.4.0</desc>
<defs>
</defs>
<g transform="matrix(1 0 0 1 640 512)" id="background-logo"  >
<rect style="stroke: none; stroke-width: 0; stroke-dasharray: none; stroke-linecap: butt; stroke-dashoffset: 0; stroke-linejoin: miter; stroke-miterlimit: 4; fill: rgb(255,255,255); fill-rule: nonzero; opacity: 1;"  paint-order="stroke"  x="-640" y="-512" rx="0" ry="0" width="1280" height="1024" />
</g>
<g transform="matrix(1.9211538461538462 0 0 1.9211538461538462 640 374.5945861101269)" id="logo-logo"  >
<g style=""  paint-order="stroke"   >
		<g transform="matrix(0.5469077547879775 0 0 -0.5469077547879775 -72.5391100563034 -33.19456617685648)"  >
<path style="stroke: none; stroke-width: 1; stroke-dasharray: none; stroke-linecap: butt; stroke-dashoffset: 0; stroke-linejoin: miter; stroke-miterlimit: 4; fill: rgb(14,15,14); fill-rule: evenodd; opacity: 1;"  paint-order="stroke"  transform=" translate(-2927.3650000000002, -4020.6950000000006)" d="M 2905.17 3940.32 L 2905.09 3940.3500000000004 L 2905.09 3900.5800000000004 L 2950.6400000000003 3900.5800000000004 L 3044.3500000000004 4143.070000000001 L 2904.9500000000003 4141.27 L 2904.9500000000003 4101.06 L 2905.17 4101.150000000001 L 2905.17 4055.1000000000004 L 2815.64 4020.6000000000004 L 2904.91 3986.1500000000005 L 2905.0899999999997 3986.1500000000005 L 2905.0899999999997 3986.0900000000006 L 2905.1699999999996 3986.0500000000006 z M 2905.09 3864.26 L 2905.09 3864.2400000000002 L 2868.9700000000003 3864.2400000000002 L 2868.9700000000003 3864.2400000000002 L 2868.9100000000003 3864.2400000000002 L 2868.9100000000003 3900.5800000000004 L 2868.9700000000003 3900.5800000000004 L 2868.9700000000003 3955.3300000000004 L 2757.8700000000003 4001.4000000000005 L 2757.8700000000003 4040.1100000000006 L 2868.8300000000004 4086.0900000000006 L 2868.8300000000004 4177.06 L 2868.9100000000003 4177.06 L 2868.9100000000003 4177.150000000001 L 3096.86 4177.150000000001 L 3085.83 4149.6 L 2989.6 3900.5800000000004 L 2989.91 3900.5800000000004 L 2975.6499999999996 3864.2900000000004 L 2905.0899999999997 3864.26" stroke-linecap="round" />
</g>
		<g transform="matrix(0.5469077547879775 0 0 -0.5469077547879775 72.5391100563034 -33.19456617685648)"  >
<path style="stroke: none; stroke-width: 1; stroke-dasharray: none; stroke-linecap: butt; stroke-dashoffset: 0; stroke-linejoin: miter; stroke-miterlimit: 4; fill: rgb(14,15,14); fill-rule: evenodd; opacity: 1;"  paint-order="stroke"  transform=" translate(-3192.635, -4020.6950000000006)" d="M 3214.84 4101.07 L 3214.9100000000003 4101.04 L 3214.9100000000003 4140.8 L 3169.36 4140.8 L 3075.65 3898.3100000000004 L 3215.05 3900.1100000000006 L 3215.05 3940.3300000000004 L 3214.84 3940.2400000000002 L 3214.84 3986.2900000000004 L 3304.36 4020.7900000000004 L 3215.09 4055.2300000000005 L 3214.9100000000003 4055.2300000000005 L 3214.9100000000003 4055.3000000000006 L 3214.84 4055.3400000000006 z M 3214.9100000000003 4177.13 L 3214.9100000000003 4177.150000000001 L 3251.03 4177.150000000001 L 3251.03 4177.14 L 3251.09 4177.14 L 3251.09 4140.8 L 3251.03 4140.8 L 3251.03 4086.0600000000004 L 3362.13 4039.9800000000005 L 3362.13 4001.2800000000007 L 3251.1800000000003 3955.3000000000006 L 3251.1800000000003 3864.3200000000006 L 3251.09 3864.3200000000006 L 3251.09 3864.2400000000007 L 3023.1400000000003 3864.2400000000007 L 3034.1700000000005 3891.790000000001 L 3130.4000000000005 4140.800000000001 L 3130.1000000000004 4140.800000000001 L 3144.3600000000006 4177.100000000001 L 3214.9100000000008 4177.130000000001" stroke-linecap="round" />
</g>
		<g transform="matrix(0.5469077547879775 0 0 -0.5469077547879775 -71.10074266121114 -33.8125719397664)"  >
<path style="stroke: none; stroke-width: 1; stroke-dasharray: none; stroke-linecap: butt; stroke-dashoffset: 0; stroke-linejoin: miter; stroke-miterlimit: 4; fill: rgb(153,222,249); fill-rule: evenodd; opacity: 1;"  paint-order="stroke"  transform=" translate(-2929.995, -4021.825)" d="M 2950.64 3900.58 L 3044.35 4143.07 L 2904.95 4141.2699999999995 L 2904.95 4101.0599999999995 L 2905.1699999999996 4101.15 L 2905.1699999999996 4055.0999999999995 L 2815.6399999999994 4020.5999999999995 L 2904.9099999999994 3986.1499999999996 L 2905.0899999999992 3986.1499999999996 L 2905.0899999999992 3986.0899999999997 L 2905.169999999999 3986.0499999999997 L 2905.169999999999 3940.3199999999997 L 2905.0899999999992 3940.35 L 2905.0899999999992 3900.58 L 2950.6399999999994 3900.58" stroke-linecap="round" />
</g>
		<g transform="matrix(0.5469077547879775 0 0 -0.5469077547879775 71.10074266121109 -32.57109133639793)"  >
<path style="stroke: none; stroke-width: 1; stroke-dasharray: none; stroke-linecap: butt; stroke-dashoffset: 0; stroke-linejoin: miter; stroke-miterlimit: 4; fill: rgb(153,222,249); fill-rule: evenodd; opacity: 1;"  paint-order="stroke"  transform=" translate(-3190.005, -4019.5550000000007)" d="M 3169.36 4140.8 L 3075.65 3898.3100000000004 L 3215.05 3900.1100000000006 L 3215.05 3940.3300000000004 L 3214.84 3940.2400000000002 L 3214.84 3986.2900000000004 L 3304.36 4020.7900000000004 L 3215.09 4055.2300000000005 L 3214.9100000000003 4055.2300000000005 L 3214.9100000000003 4055.3000000000006 L 3214.84 4055.3400000000006 L 3214.84 4101.070000000001 L 3214.9100000000003 4101.040000000001 L 3214.9100000000003 4140.800000000001 L 3169.36 4140.800000000001" stroke-linecap="round" />
</g>
		<g transform="matrix(0.5469077547879775 0 0 -0.5469077547879775 -90.99177770284967 67.60053303056847)"  >
<path style="stroke: none; stroke-width: 1; stroke-dasharray: none; stroke-linecap: butt; stroke-dashoffset: 0; stroke-linejoin: miter; stroke-miterlimit: 4; fill: rgb(14,15,14); fill-rule: evenodd; opacity: 1;"  paint-order="stroke"  transform=" translate(-2893.625, -3836.395)" d="M 2885.29 3844.73 L 2901.96 3844.73 L 2901.96 3828.06 L 2885.29 3828.06 L 2885.29 3844.73" stroke-linecap="round" />
</g>
		<g transform="matrix(0.5469077547879775 0 0 -0.5469077547879775 -90.99177770284967 80.85210792908092)"  >
<path style="stroke: none; stroke-width: 1; stroke-dasharray: none; stroke-linecap: butt; stroke-dashoffset: 0; stroke-linejoin: miter; stroke-miterlimit: 4; fill: rgb(14,15,14); fill-rule: evenodd; opacity: 1;"  paint-order="stroke"  transform=" translate(-2893.625, -3812.165)" d="M 2885.29 3820.5 L 2901.96 3820.5 L 2901.96 3803.83 L 2885.29 3803.83 L 2885.29 3820.5" stroke-linecap="round" />
</g>
		<g transform="matrix(0.5469077547879775 0 0 -0.5469077547879775 -84.41247741275049 94.1064173663672)"  >
<path style="stroke: none; stroke-width: 1; stroke-dasharray: none; stroke-linecap: butt; stroke-dashoffset: 0; stroke-linejoin: miter; stroke-miterlimit: 4; fill: rgb(14,15,14); fill-rule: evenodd; opacity: 1;"  paint-order="stroke"  transform=" translate(-2905.6549999999997, -3787.9300000000003)" d="M 2885.29 3796.27 L 2926.02 3796.27 L 2926.02 3779.59 L 2885.29 3779.59 L 2885.29 3796.27" stroke-linecap="round" />
</g>
		<g transform="matrix(0.5469077547879775 0 0 -0.5469077547879775 -90.99177770284967 107.36072680365405)"  >
<path style="stroke: none; stroke-width: 1; stroke-dasharray: none; stroke-linecap: butt; stroke-dashoffset: 0; stroke-linejoin: miter; stroke-miterlimit: 4; fill: rgb(14,15,14); fill-rule: evenodd; opacity: 1;"  paint-order="stroke"  transform=" translate(-2893.625, -3763.695)" d="M 2885.29 3772.03 L 2901.96 3772.03 L 2901.96 3755.36 L 2885.29 3755.36 L 2885.29 3772.03" stroke-linecap="round" />
</g>
		<g transform="matrix(0.5469077547879775 0 0 -0.5469077547879775 -77.740202804337 67.60053303056847)"  >
<path style="stroke: none; stroke-width: 1; stroke-dasharray: none; stroke-linecap: butt; stroke-dashoffset: 0; stroke-linejoin: miter; stroke-miterlimit: 4; fill: rgb(14,15,14); fill-rule: evenodd; opacity: 1;"  paint-order="stroke"  transform=" translate(-2917.855, -3836.395)" d="M 2909.52 3844.73 L 2926.19 3844.73 L 2926.19 3828.06 L 2909.52 3828.06 L 2909.52 3844.73" stroke-linecap="round" />
</g>
		<g transform="matrix(0.5469077547879775 0 0 -0.5469077547879775 -77.740202804337 80.85210792908092)"  >
<path style="stroke: none; stroke-width: 1; stroke-dasharray: none; stroke-linecap: butt; stroke-dashoffset: 0; stroke-linejoin: miter; stroke-miterlimit: 4; fill: rgb(14,15,14); fill-rule: evenodd; opacity: 1;"  paint-order="stroke"  transform=" translate(-2917.855, -3812.165)" d="M 2909.52 3820.5 L 2926.19 3820.5 L 2926.19 3803.83 L 2909.52 3803.83 L 2909.52 3820.5" stroke-linecap="round" />
</g>
		<g transform="matrix(0.5469077547879775 0 0 -0.5469077547879775 -77.740202804337 107.36072680365405)"  >
<path style="stroke: none; stroke-width: 1; stroke-dasharray: none; stroke-linecap: butt; stroke-dashoffset: 0; stroke-linejoin: miter; stroke-miterlimit: 4; fill: rgb(14,15,14); fill-rule: evenodd; opacity: 1;"  paint-order="stroke"  transform=" translate(-2917.855, -3763.695)" d="M 2909.52 3772.03 L 2926.19 3772.03 L 2926.19 3755.36 L 2909.52 3755.36 L 2909.52 3772.03" stroke-linecap="round" />
</g>
		<g transform="matrix(0.5469077547879775 0 0 -0.5469077547879775 -64.48862790582433 67.60053303056847)"  >
<path style="stroke: none; stroke-width: 1; stroke-dasharray: none; stroke-linecap: butt; stroke-dashoffset: 0; stroke-linejoin: miter; stroke-miterlimit: 4; fill: rgb(14,15,14); fill-rule: evenodd; opacity: 1;"  paint-order="stroke"  transform=" translate(-2942.085, -3836.395)" d="M 2933.75 3844.73 L 2950.42 3844.73 L 2950.42 3828.06 L 2933.75 3828.06 L 2933.75 3844.73" stroke-linecap="round" />
</g>
		<g transform="matrix(0.5469077547879775 0 0 -0.5469077547879775 -64.48862790582433 80.85210792908092)"  >
<path style="stroke: none; stroke-width: 1; stroke-dasharray: none; stroke-linecap: butt; stroke-dashoffset: 0; stroke-linejoin: miter; stroke-miterlimit: 4; fill: rgb(14,15,14); fill-rule: evenodd; opacity: 1;"  paint-order="stroke"  transform=" translate(-2942.085, -3812.165)" d="M 2933.75 3820.5 L 2950.42 3820.5 L 2950.42 3803.83 L 2933.75 3803.83 L 2933.75 3820.5" stroke-linecap="round" />
</g>
		<g transform="matrix(0.5469077547879775 0 0 -0.5469077547879775 -64.48862790582433 94.1064173663672)"  >
<path style="stroke: none; stroke-width: 1; stroke-dasharray: none; stroke-linecap: butt; stroke-dashoffset: 0; stroke-linejoin: miter; stroke-miterlimit: 4; fill: rgb(14,15,14); fill-rule: evenodd; opacity: 1;"  paint-order="stroke"  transform=" translate(-2942.085, -3787.9300000000003)" d="M 2933.75 3796.27 L 2950.42 3796.27 L 2950.42 3779.59 L 2933.75 3779.59 L 2933.75 3796.27" stroke-linecap="round" />
</g>
		<g transform="matrix(0.5469077547879775 0 0 -0.5469077547879775 -44.862843125257825 107.36072680365405)"  >
<path style="stroke: none; stroke-width: 1; stroke-dasharray: none; stroke-linecap: butt; stroke-dashoffset: 0; stroke-linejoin: miter; stroke-miterlimit: 4; fill: rgb(14,15,14); fill-rule: evenodd; opacity: 1;"  paint-order="stroke"  transform=" translate(-2977.9700000000003, -3763.695)" d="M 2933.75 3772.03 L 3022.19 3772.03 L 3022.19 3755.36 L 2933.75 3755.36 L 2933.75 3772.03" stroke-linecap="round" />
</g>
		<g transform="matrix(0.5469077547879775 0 0 -0.5469077547879775 -51.23431846853782 67.60053303056847)"  >
<path style="stroke: none; stroke-width: 1; stroke-dasharray: none; stroke-linecap: butt; stroke-dashoffset: 0; stroke-linejoin: miter; stroke-miterlimit: 4; fill: rgb(14,15,14); fill-rule: evenodd; opacity: 1;"  paint-order="stroke"  transform=" translate(-2966.3199999999997, -3836.395)" d="M 2957.98 3844.73 L 2974.66 3844.73 L 2974.66 3828.06 L 2957.98 3828.06 L 2957.98 3844.73" stroke-linecap="round" />
</g>
		<g transform="matrix(0.5469077547879775 0 0 -0.5469077547879775 -51.23431846853782 80.85210792908092)"  >
<path style="stroke: none; stroke-width: 1; stroke-dasharray: none; stroke-linecap: butt; stroke-dashoffset: 0; stroke-linejoin: miter; stroke-miterlimit: 4; fill: rgb(14,15,14); fill-rule: evenodd; opacity: 1;"  paint-order="stroke"  transform=" translate(-2966.3199999999997, -3812.165)" d="M 2957.98 3820.5 L 2974.66 3820.5 L 2974.66 3803.83 L 2957.98 3803.83 L 2957.98 3820.5" stroke-linecap="round" />
</g>
		<g transform="matrix(0.5469077547879775 0 0 -0.5469077547879775 -51.23431846853782 94.1064173663672)"  >
<path style="stroke: none; stroke-width: 1; stroke-dasharray: none; stroke-linecap: butt; stroke-dashoffset: 0; stroke-linejoin: miter; stroke-miterlimit: 4; fill: rgb(14,15,14); fill-rule: evenodd; opacity: 1;"  paint-order="stroke"  transform=" translate(-2966.3199999999997, -3787.9300000000003)" d="M 2957.98 3796.27 L 2974.66 3796.27 L 2974.66 3779.59 L 2957.98 3779.59 L 2957.98 3796.27" stroke-linecap="round" />
</g>
		<g transform="matrix(0.5469077547879775 0 0 -0.5469077547879775 -37.98274357002492 67.60053303056847)"  >
<path style="stroke: none; stroke-width: 1; stroke-dasharray: none; stroke-linecap: butt; stroke-dashoffset: 0; stroke-linejoin: miter; stroke-miterlimit: 4; fill: rgb(14,15,14); fill-rule: evenodd; opacity: 1;"  paint-order="stroke"  transform=" translate(-2990.55, -3836.395)" d="M 2982.21 3844.73 L 2998.89 3844.73 L 2998.89 3828.06 L 2982.21 3828.06 L 2982.21 3844.73" stroke-linecap="round" />
</g>
		<g transform="matrix(0.5469077547879775 0 0 -0.5469077547879775 -37.98274357002492 80.85210792908092)"  >
<path style="stroke: none; stroke-width: 1; stroke-dasharray: none; stroke-linecap: butt; stroke-dashoffset: 0; stroke-linejoin: miter; stroke-miterlimit: 4; fill: rgb(14,15,14); fill-rule: evenodd; opacity: 1;"  paint-order="stroke"  transform=" translate(-2990.55, -3812.165)" d="M 2982.21 3820.5 L 2998.89 3820.5 L 2998.89 3803.83 L 2982.21 3803.83 L 2982.21 3820.5" stroke-linecap="round" />
</g>
		<g transform="matrix(0.5469077547879775 0 0 -0.5469077547879775 -37.98274357002492 94.1064173663672)"  >
<path style="stroke: none; stroke-width: 1; stroke-dasharray: none; stroke-linecap: butt; stroke-dashoffset: 0; stroke-linejoin: miter; stroke-miterlimit: 4; fill: rgb(14,15,14); fill-rule: evenodd; opacity: 1;"  paint-order="stroke"  transform=" translate(-2990.55, -3787.9300000000003)" d="M 2982.21 3796.27 L 2998.89 3796.27 L 2998.89 3779.59 L 2982.21 3779.59 L 2982.21 3796.27" stroke-linecap="round" />
</g>
		<g transform="matrix(0.5469077547879775 0 0 -0.5469077547879775 -24.72843413273864 67.60053303056847)"  >
<path style="stroke: none; stroke-width: 1; stroke-dasharray: none; stroke-linecap: butt; stroke-dashoffset: 0; stroke-linejoin: miter; stroke-miterlimit: 4; fill: rgb(14,15,14); fill-rule: evenodd; opacity: 1;"  paint-order="stroke"  transform=" translate(-3014.785, -3836.395)" d="M 3006.45 3844.73 L 3023.12 3844.73 L 3023.12 3828.06 L 3006.45 3828.06 L 3006.45 3844.73" stroke-linecap="round" />
</g>
		<g transform="matrix(0.5469077547879775 0 0 -0.5469077547879775 -24.72843413273864 80.85210792908092)"  >
<path style="stroke: none; stroke-width: 1; stroke-dasharray: none; stroke-linecap: butt; stroke-dashoffset: 0; stroke-linejoin: miter; stroke-miterlimit: 4; fill: rgb(14,15,14); fill-rule: evenodd; opacity: 1;"  paint-order="stroke"  transform=" translate(-3014.785, -3812.165)" d="M 3006.45 3820.5 L 3023.12 3820.5 L 3023.12 3803.83 L 3006.45 3803.83 L 3006.45 3820.5" stroke-linecap="round" />
</g>
		<g transform="matrix(0.5469077547879775 0 0 -0.5469077547879775 -24.72843413273864 94.1064173663672)"  >
<path style="stroke: none; stroke-width: 1; stroke-dasharray: none; stroke-linecap: butt; stroke-dashoffset: 0; stroke-linejoin: miter; stroke-miterlimit: 4; fill: rgb(14,15,14); fill-rule: evenodd; opacity: 1;"  paint-order="stroke"  transform=" translate(-3014.785, -3787.9300000000003)" d="M 3006.45 3796.27 L 3023.12 3796.27 L 3023.12 3779.59 L 3006.45 3779.59 L 3006.45 3796.27" stroke-linecap="round" />
</g>
		<g transform="matrix(0.5469077547879775 0 0 -0.5469077547879775 -11.47685923422597 67.60053303056847)"  >
<path style="stroke: none; stroke-width: 1; stroke-dasharray: none; stroke-linecap: butt; stroke-dashoffset: 0; stroke-linejoin: miter; stroke-miterlimit: 4; fill: rgb(14,15,14); fill-rule: evenodd; opacity: 1;"  paint-order="stroke"  transform=" translate(-3039.015, -3836.395)" d="M 3030.68 3844.73 L 3047.35 3844.73 L 3047.35 3828.06 L 3030.68 3828.06 L 3030.68 3844.73" stroke-linecap="round" />
</g>
		<g transform="matrix(0.5469077547879775 0 0 -0.5469077547879775 -11.47685923422597 94.1064173663672)"  >
<path style="stroke: none; stroke-width: 1; stroke-dasharray: none; stroke-linecap: butt; stroke-dashoffset: 0; stroke-linejoin: miter; stroke-miterlimit: 4; fill: rgb(14,15,14); fill-rule: evenodd; opacity: 1;"  paint-order="stroke"  transform=" translate(-3039.015, -3787.9300000000003)" d="M 3030.68 3796.27 L 3047.35 3796.27 L 3047.35 3779.59 L 3030.68 3779.59 L 3030.68 3796.27" stroke-linecap="round" />
</g>
		<g transform="matrix(0.5469077547879775 0 0 -0.5469077547879775 -11.47685923422597 107.36072680365405)"  >
<path style="stroke: none; stroke-width: 1; stroke-dasharray: none; stroke-linecap: butt; stroke-dashoffset: 0; stroke-linejoin: miter; stroke-miterlimit: 4; fill: rgb(14,15,14); fill-rule: evenodd; opacity: 1;"  paint-order="stroke"  transform=" translate(-3039.015, -3763.695)" d="M 3030.68 3772.03 L 3047.35 3772.03 L 3047.35 3755.36 L 3030.68 3755.36 L 3030.68 3772.03" stroke-linecap="round" />
</g>
		<g transform="matrix(0.5469077547879775 0 0 -0.5469077547879775 1.7747156642869868 67.60053303056847)"  >
<path style="stroke: none; stroke-width: 1; stroke-dasharray: none; stroke-linecap: butt; stroke-dashoffset: 0; stroke-linejoin: miter; stroke-miterlimit: 4; fill: rgb(14,15,14); fill-rule: evenodd; opacity: 1;"  paint-order="stroke"  transform=" translate(-3063.245, -3836.395)" d="M 3054.91 3844.73 L 3071.58 3844.73 L 3071.58 3828.06 L 3054.91 3828.06 L 3054.91 3844.73" stroke-linecap="round" />
</g>
		<g transform="matrix(0.5469077547879775 0 0 -0.5469077547879775 -4.8510717849692355 87.48062991711126)"  >
<path style="stroke: none; stroke-width: 1; stroke-dasharray: none; stroke-linecap: butt; stroke-dashoffset: 0; stroke-linejoin: miter; stroke-miterlimit: 4; fill: rgb(14,15,14); fill-rule: evenodd; opacity: 1;"  paint-order="stroke"  transform=" translate(-3051.13, -3800.045)" d="M 3054.91 3820.5 L 3071.58 3820.5 L 3071.58 3779.59 L 3054.91 3779.59 L 3054.91 3803.83 L 3030.68 3803.83 L 3030.68 3820.5 L 3054.91 3820.5" stroke-linecap="round" />
</g>
		<g transform="matrix(0.5469077547879775 0 0 -0.5469077547879775 1.7747156642869868 107.36072680365405)"  >
<path style="stroke: none; stroke-width: 1; stroke-dasharray: none; stroke-linecap: butt; stroke-dashoffset: 0; stroke-linejoin: miter; stroke-miterlimit: 4; fill: rgb(14,15,14); fill-rule: evenodd; opacity: 1;"  paint-order="stroke"  transform=" translate(-3063.245, -3763.695)" d="M 3054.91 3772.03 L 3071.58 3772.03 L 3071.58 3755.36 L 3054.91 3755.36 L 3054.91 3772.03" stroke-linecap="round" />
</g>
		<g transform="matrix(0.5469077547879775 0 0 -0.5469077547879775 18.129992071221523 67.60053303056847)"  >
<path style="stroke: none; stroke-width: 1; stroke-dasharray: none; stroke-linecap: butt; stroke-dashoffset: 0; stroke-linejoin: miter; stroke-miterlimit: 4; fill: rgb(14,15,14); fill-rule: evenodd; opacity: 1;"  paint-order="stroke"  transform=" translate(-3093.15, -3836.395)" d="M 3084.82 3844.73 L 3101.48 3844.73 L 3101.48 3828.06 L 3084.82 3828.06 L 3084.82 3844.73" stroke-linecap="round" />
</g>
		<g transform="matrix(0.5469077547879775 0 0 -0.5469077547879775 31.381566969734138 67.60053303056847)"  >
<path style="stroke: none; stroke-width: 1; stroke-dasharray: none; stroke-linecap: butt; stroke-dashoffset: 0; stroke-linejoin: miter; stroke-miterlimit: 4; fill: rgb(14,15,14); fill-rule: evenodd; opacity: 1;"  paint-order="stroke"  transform=" translate(-3117.38, -3836.395)" d="M 3109.05 3844.73 L 3125.71 3844.73 L 3125.71 3828.06 L 3109.05 3828.06 L 3109.05 3844.73" stroke-linecap="round" />
</g>
		<g transform="matrix(0.5469077547879775 0 0 -0.5469077547879775 44.63587640702093 67.60053303056847)"  >
<path style="stroke: none; stroke-width: 1; stroke-dasharray: none; stroke-linecap: butt; stroke-dashoffset: 0; stroke-linejoin: miter; stroke-miterlimit: 4; fill: rgb(14,15,14); fill-rule: evenodd; opacity: 1;"  paint-order="stroke"  transform=" translate(-3141.6150000000002, -3836.395)" d="M 3133.28 3844.73 L 3149.9500000000003 3844.73 L 3149.9500000000003 3828.06 L 3133.28 3828.06 L 3133.28 3844.73" stroke-linecap="round" />
</g>
		<g transform="matrix(0.5469077547879775 0 0 -0.5469077547879775 31.381566969734138 80.85210792908092)"  >
<path style="stroke: none; stroke-width: 1; stroke-dasharray: none; stroke-linecap: butt; stroke-dashoffset: 0; stroke-linejoin: miter; stroke-miterlimit: 4; fill: rgb(14,15,14); fill-rule: evenodd; opacity: 1;"  paint-order="stroke"  transform=" translate(-3117.38, -3812.165)" d="M 3109.05 3820.5 L 3125.71 3820.5 L 3125.71 3803.83 L 3109.05 3803.83 L 3109.05 3820.5" stroke-linecap="round" />
</g>
		<g transform="matrix(0.5469077547879775 0 0 -0.5469077547879775 18.129992071221523 107.36072680365405)"  >
<path style="stroke: none; stroke-width: 1; stroke-dasharray: none; stroke-linecap: butt; stroke-dashoffset: 0; stroke-linejoin: miter; stroke-miterlimit: 4; fill: rgb(14,15,14); fill-rule: evenodd; opacity: 1;"  paint-order="stroke"  transform=" translate(-3093.15, -3763.695)" d="M 3084.82 3755.36 L 3101.48 3755.36 L 3101.48 3772.03 L 3084.82 3772.03 L 3084.82 3755.36" stroke-linecap="round" />
</g>
		<g transform="matrix(0.5469077547879775 0 0 -0.5469077547879775 31.381566969734138 107.36072680365405)"  >
<path style="stroke: none; stroke-width: 1; stroke-dasharray: none; stroke-linecap: butt; stroke-dashoffset: 0; stroke-linejoin: miter; stroke-miterlimit: 4; fill: rgb(14,15,14); fill-rule: evenodd; opacity: 1;"  paint-order="stroke"  transform=" translate(-3117.38, -3763.695)" d="M 3109.05 3755.36 L 3125.71 3755.36 L 3125.71 3772.03 L 3109.05 3772.03 L 3109.05 3755.36" stroke-linecap="round" />
</g>
		<g transform="matrix(0.5469077547879775 0 0 -0.5469077547879775 44.63587640702093 107.36072680365405)"  >
<path style="stroke: none; stroke-width: 1; stroke-dasharray: none; stroke-linecap: butt; stroke-dashoffset: 0; stroke-linejoin: miter; stroke-miterlimit: 4; fill: rgb(14,15,14); fill-rule: evenodd; opacity: 1;"  paint-order="stroke"  transform=" translate(-3141.6150000000002, -3763.695)" d="M 3133.28 3755.36 L 3149.9500000000003 3755.36 L 3149.9500000000003 3772.03 L 3133.28 3772.03 L 3133.28 3755.36" stroke-linecap="round" />
</g>
		<g transform="matrix(0.5469077547879775 0 0 -0.5469077547879775 31.381566969734138 94.1064173663672)"  >
<path style="stroke: none; stroke-width: 1; stroke-dasharray: none; stroke-linecap: butt; stroke-dashoffset: 0; stroke-linejoin: miter; stroke-miterlimit: 4; fill: rgb(14,15,14); fill-rule: evenodd; opacity: 1;"  paint-order="stroke"  transform=" translate(-3117.38, -3787.9300000000003)" d="M 3109.05 3779.59 L 3125.71 3779.59 L 3125.71 3796.27 L 3109.05 3796.27 L 3109.05 3779.59" stroke-linecap="round" />
</g>
		<g transform="matrix(0.5469077547879775 0 0 -0.5469077547879775 44.63587640702093 80.85210792908092)"  >
<path style="stroke: none; stroke-width: 1; stroke-dasharray: none; stroke-linecap: butt; stroke-dashoffset: 0; stroke-linejoin: miter; stroke-miterlimit: 4; fill: rgb(14,15,14); fill-rule: evenodd; opacity: 1;"  paint-order="stroke"  transform=" translate(-3141.6150000000002, -3812.165)" d="M 3133.28 3820.5 L 3149.9500000000003 3820.5 L 3149.9500000000003 3803.83 L 3133.28 3803.83 L 3133.28 3820.5" stroke-linecap="round" />
</g>
		<g transform="matrix(0.5469077547879775 0 0 -0.5469077547879775 18.129992071221523 80.85210792908092)"  >
<path style="stroke: none; stroke-width: 1; stroke-dasharray: none; stroke-linecap: butt; stroke-dashoffset: 0; stroke-linejoin: miter; stroke-miterlimit: 4; fill: rgb(14,15,14); fill-rule: evenodd; opacity: 1;"  paint-order="stroke"  transform=" translate(-3093.15, -3812.165)" d="M 3084.82 3820.5 L 3101.48 3820.5 L 3101.48 3803.83 L 3084.82 3803.83 L 3084.82 3820.5" stroke-linecap="round" />
</g>
		<g transform="matrix(0.5469077547879775 0 0 -0.5469077547879775 64.66363838735634 67.60053303056847)"  >
<path style="stroke: none; stroke-width: 1; stroke-dasharray: none; stroke-linecap: butt; stroke-dashoffset: 0; stroke-linejoin: miter; stroke-miterlimit: 4; fill: rgb(14,15,14); fill-rule: evenodd; opacity: 1;"  paint-order="stroke"  transform=" translate(-3178.235, -3836.395)" d="M 3169.9 3844.73 L 3186.57 3844.73 L 3186.57 3828.06 L 3169.9 3828.06 L 3169.9 3844.73" stroke-linecap="round" />
</g>
		<g transform="matrix(0.5469077547879775 0 0 -0.5469077547879775 77.91521328586902 67.60053303056847)"  >
<path style="stroke: none; stroke-width: 1; stroke-dasharray: none; stroke-linecap: butt; stroke-dashoffset: 0; stroke-linejoin: miter; stroke-miterlimit: 4; fill: rgb(14,15,14); fill-rule: evenodd; opacity: 1;"  paint-order="stroke"  transform=" translate(-3202.465, -3836.395)" d="M 3194.13 3844.73 L 3210.8 3844.73 L 3210.8 3828.06 L 3194.13 3828.06 L 3194.13 3844.73" stroke-linecap="round" />
</g>
		<g transform="matrix(0.5469077547879775 0 0 -0.5469077547879775 91.16678818438203 67.60053303056847)"  >
<path style="stroke: none; stroke-width: 1; stroke-dasharray: none; stroke-linecap: butt; stroke-dashoffset: 0; stroke-linejoin: miter; stroke-miterlimit: 4; fill: rgb(14,15,14); fill-rule: evenodd; opacity: 1;"  paint-order="stroke"  transform=" translate(-3226.695, -3836.395)" d="M 3218.36 3844.73 L 3235.03 3844.73 L 3235.03 3828.06 L 3218.36 3828.06 L 3218.36 3844.73" stroke-linecap="round" />
</g>
		<g transform="matrix(0.5469077547879775 0 0 -0.5469077547879775 77.91521328586902 80.85210792908092)"  >
<path style="stroke: none; stroke-width: 1; stroke-dasharray: none; stroke-linecap: butt; stroke-dashoffset: 0; stroke-linejoin: miter; stroke-miterlimit: 4; fill: rgb(14,15,14); fill-rule: evenodd; opacity: 1;"  paint-order="stroke"  transform=" translate(-3202.465, -3812.165)" d="M 3194.13 3820.5 L 3210.8 3820.5 L 3210.8 3803.83 L 3194.13 3803.83 L 3194.13 3820.5" stroke-linecap="round" />
</g>
		<g transform="matrix(0.5469077547879775 0 0 -0.5469077547879775 91.16678818438203 80.85210792908092)"  >
<path style="stroke: none; stroke-width: 1; stroke-dasharray: none; stroke-linecap: butt; stroke-dashoffset: 0; stroke-linejoin: miter; stroke-miterlimit: 4; fill: rgb(14,15,14); fill-rule: evenodd; opacity: 1;"  paint-order="stroke"  transform=" translate(-3226.695, -3812.165)" d="M 3218.36 3820.5 L 3235.03 3820.5 L 3235.03 3803.83 L 3218.36 3803.83 L 3218.36 3820.5" stroke-linecap="round" />
</g>
		<g transform="matrix(0.5469077547879775 0 0 -0.5469077547879775 64.66363838735634 80.85210792908092)"  >
<path style="stroke: none; stroke-width: 1; stroke-dasharray: none; stroke-linecap: butt; stroke-dashoffset: 0; stroke-linejoin: miter; stroke-miterlimit: 4; fill: rgb(14,15,14); fill-rule: evenodd; opacity: 1;"  paint-order="stroke"  transform=" translate(-3178.235, -3812.165)" d="M 3169.9 3820.5 L 3186.57 3820.5 L 3186.57 3803.83 L 3169.9 3803.83 L 3169.9 3820.5" stroke-linecap="round" />
</g>
		<g transform="matrix(0.5469077547879775 0 0 -0.5469077547879775 77.91521328586902 94.1064173663672)"  >
<path style="stroke: none; stroke-width: 1; stroke-dasharray: none; stroke-linecap: butt; stroke-dashoffset: 0; stroke-linejoin: miter; stroke-miterlimit: 4; fill: rgb(14,15,14); fill-rule: evenodd; opacity: 1;"  paint-order="stroke"  transform=" translate(-3202.465, -3787.9300000000003)" d="M 3194.13 3796.27 L 3210.8 3796.27 L 3210.8 3779.59 L 3194.13 3779.59 L 3194.13 3796.27" stroke-linecap="round" />
</g>
		<g transform="matrix(0.5469077547879775 0 0 -0.5469077547879775 91.16678818438203 100.36577661991632)"  >
<path style="stroke: none; stroke-width: 1; stroke-dasharray: none; stroke-linecap: butt; stroke-dashoffset: 0; stroke-linejoin: miter; stroke-miterlimit: 4; fill: rgb(14,15,14); fill-rule: evenodd; opacity: 1;"  paint-order="stroke"  transform=" translate(-3226.695, -3776.4849999999997)" d="M 3218.36 3796.27 L 3235.03 3796.27 L 3235.03 3756.7 L 3218.36 3756.7 L 3218.36 3796.27" stroke-linecap="round" />
</g>
		<g transform="matrix(0.5469077547879775 0 0 -0.5469077547879775 64.66363838735634 94.1064173663672)"  >
<path style="stroke: none; stroke-width: 1; stroke-dasharray: none; stroke-linecap: butt; stroke-dashoffset: 0; stroke-linejoin: miter; stroke-miterlimit: 4; fill: rgb(14,15,14); fill-rule: evenodd; opacity: 1;"  paint-order="stroke"  transform=" translate(-3178.235, -3787.9300000000003)" d="M 3169.9 3796.27 L 3186.57 3796.27 L 3186.57 3779.59 L 3169.9 3779.59 L 3169.9 3796.27" stroke-linecap="round" />
</g>
		<g transform="matrix(0.5469077547879775 0 0 -0.5469077547879775 77.91521328586902 107.35799226488015)"  >
<path style="stroke: none; stroke-width: 1; stroke-dasharray: none; stroke-linecap: butt; stroke-dashoffset: 0; stroke-linejoin: miter; stroke-miterlimit: 4; fill: rgb(14,15,14); fill-rule: evenodd; opacity: 1;"  paint-order="stroke"  transform=" translate(-3202.465, -3763.7)" d="M 3194.13 3772.04 L 3210.8 3772.04 L 3210.8 3755.36 L 3194.13 3755.36 L 3194.13 3772.04" stroke-linecap="round" />
</g>
		<g transform="matrix(0.5469077547879775 0 0 -0.5469077547879775 64.66363838735634 107.35799226488015)"  >
<path style="stroke: none; stroke-width: 1; stroke-dasharray: none; stroke-linecap: butt; stroke-dashoffset: 0; stroke-linejoin: miter; stroke-miterlimit: 4; fill: rgb(14,15,14); fill-rule: evenodd; opacity: 1;"  paint-order="stroke"  transform=" translate(-3178.235, -3763.7)" d="M 3169.9 3772.04 L 3186.57 3772.04 L 3186.57 3755.36 L 3169.9 3755.36 L 3169.9 3772.04" stroke-linecap="round" />
</g>
		<g transform="matrix(0.5469077547879775 0 0 -0.5469077547879775 -111.73872338073204 88.19707907588335)"  >
<path style="stroke: none; stroke-width: 1; stroke-dasharray: none; stroke-linecap: butt; stroke-dashoffset: 0; stroke-linejoin: miter; stroke-miterlimit: 4; fill: rgb(14,15,14); fill-rule: nonzero; opacity: 1;"  paint-order="stroke"  transform=" translate(-2855.6899999999996, -3798.7350000000006)" d="M 2877.41 3854.62 L 2877.41 3835.58 L 2874.8199999999997 3835.58 C 2872.41 3835.58 2870.5899999999997 3835.06 2869.3799999999997 3834.0299999999997 C 2868.1699999999996 3832.9999999999995 2867.3199999999997 3831.43 2866.8199999999997 3829.29 C 2866.5399999999995 3828.12 2866.39 3824.92 2866.3399999999997 3819.7 C 2866.2999999999997 3814.49 2865.7699999999995 3810.3799999999997 2864.72 3807.39 C 2863.95 3805.0899999999997 2862.83 3803.24 2861.39 3801.85 C 2860.29 3800.7999999999997 2858.5099999999998 3799.73 2856.0099999999998 3798.66 C 2858.6099999999997 3797.45 2860.5299999999997 3796.2 2861.7799999999997 3794.89 C 2863.0499999999997 3793.6 2864.1299999999997 3791.6099999999997 2865.0199999999995 3788.95 C 2865.9099999999994 3786.2999999999997 2866.3399999999997 3782.0699999999997 2866.3399999999997 3776.2599999999998 C 2866.3399999999997 3771.02 2866.6299999999997 3767.6099999999997 2867.16 3766.02 C 2867.69 3764.43 2868.5899999999997 3763.3 2869.8599999999997 3762.65 C 2871.1099999999997 3762 2873.6299999999997 3761.6600000000003 2877.41 3761.6600000000003 L 2877.41 3742.8500000000004 L 2870.1099999999997 3742.8500000000004 C 2862.5699999999997 3742.8500000000004 2857.22 3743.6800000000003 2854.0499999999997 3745.3300000000004 C 2850.87 3746.9800000000005 2848.6099999999997 3749.3800000000006 2847.2599999999998 3752.53 C 2845.89 3755.69 2845.2099999999996 3760.4300000000003 2845.2099999999996 3766.76 C 2845.2099999999996 3768.1400000000003 2845.2599999999998 3769.55 2845.3399999999997 3770.9500000000003 C 2845.3799999999997 3771.8 2845.39 3772.67 2845.39 3773.5600000000004 C 2845.39 3778.0600000000004 2844.98 3781.26 2844.16 3783.1600000000003 C 2843.3599999999997 3785.05 2842.18 3786.4400000000005 2840.64 3787.2900000000004 C 2839.1099999999997 3788.1400000000003 2836.89 3788.6000000000004 2833.97 3788.6800000000003 L 2833.97 3808.55 C 2836.9599999999996 3808.55 2839.2099999999996 3809.01 2840.7 3809.9500000000003 C 2842.2 3810.88 2843.33 3812.3100000000004 2844.1099999999997 3814.2300000000005 C 2844.8799999999997 3816.1500000000005 2845.2799999999997 3819.4100000000003 2845.2799999999997 3823.9900000000007 L 2845.2799999999997 3825.9700000000007 C 2845.2299999999996 3826.870000000001 2845.2099999999996 3827.7600000000007 2845.2099999999996 3828.6500000000005 C 2845.2099999999996 3835.5200000000004 2845.7899999999995 3840.5000000000005 2846.9199999999996 3843.5500000000006 C 2848.0699999999997 3846.620000000001 2849.6399999999994 3848.9600000000005 2851.6599999999994 3850.5900000000006 C 2853.1699999999996 3851.8400000000006 2855.2199999999993 3852.7700000000004 2857.8099999999995 3853.390000000001 C 2861.2499999999995 3854.2000000000007 2865.1799999999994 3854.620000000001 2869.5799999999995 3854.620000000001 L 2877.4099999999994 3854.620000000001" stroke-linecap="round" />
</g>
		<g transform="matrix(0.5469077547879775 0 0 -0.5469077547879775 111.73872338073176 88.19707907588335)"  >
<path style="stroke: none; stroke-width: 1; stroke-dasharray: none; stroke-linecap: butt; stroke-dashoffset: 0; stroke-linejoin: miter; stroke-miterlimit: 4; fill: rgb(14,15,14); fill-rule: nonzero; opacity: 1;"  paint-order="stroke"  transform=" translate(-3264.3100000000004, -3798.7350000000006)" d="M 3242.59 3854.62 L 3242.59 3835.58 L 3245.1800000000003 3835.58 C 3247.59 3835.58 3249.4100000000003 3835.06 3250.6200000000003 3834.0299999999997 C 3251.8300000000004 3832.9999999999995 3252.6800000000003 3831.43 3253.1800000000003 3829.29 C 3253.4600000000005 3828.12 3253.6200000000003 3824.92 3253.6600000000003 3819.7 C 3253.7000000000003 3814.49 3254.2300000000005 3810.3799999999997 3255.28 3807.39 C 3256.05 3805.0899999999997 3257.17 3803.24 3258.6200000000003 3801.85 C 3259.7100000000005 3800.7999999999997 3261.4900000000002 3799.73 3263.9900000000002 3798.66 C 3261.3900000000003 3797.45 3259.4700000000003 3796.2 3258.2200000000003 3794.89 C 3256.9500000000003 3793.6 3255.88 3791.6099999999997 3254.9800000000005 3788.95 C 3254.0900000000006 3786.2999999999997 3253.6600000000003 3782.0699999999997 3253.6600000000003 3776.2599999999998 C 3253.6600000000003 3771.02 3253.38 3767.6099999999997 3252.84 3766.02 C 3252.31 3764.43 3251.4100000000003 3763.3 3250.1400000000003 3762.65 C 3248.8900000000003 3762 3246.38 3761.6600000000003 3242.59 3761.6600000000003 L 3242.59 3742.8500000000004 L 3249.8900000000003 3742.8500000000004 C 3257.4300000000003 3742.8500000000004 3262.78 3743.6800000000003 3265.9600000000005 3745.3300000000004 C 3269.1300000000006 3746.9800000000005 3271.3900000000003 3749.3800000000006 3272.7400000000007 3752.53 C 3274.1100000000006 3755.69 3274.790000000001 3760.4300000000003 3274.790000000001 3766.76 C 3274.790000000001 3768.1400000000003 3274.750000000001 3769.55 3274.6600000000008 3770.9500000000003 C 3274.6300000000006 3771.8 3274.6100000000006 3772.67 3274.6100000000006 3773.5600000000004 C 3274.6100000000006 3778.0600000000004 3275.0200000000004 3781.26 3275.8400000000006 3783.1600000000003 C 3276.6500000000005 3785.05 3277.8200000000006 3786.4400000000005 3279.3600000000006 3787.2900000000004 C 3280.890000000001 3788.1400000000003 3283.1100000000006 3788.6000000000004 3286.0300000000007 3788.6800000000003 L 3286.0300000000007 3808.55 C 3283.040000000001 3808.55 3280.790000000001 3809.01 3279.310000000001 3809.9500000000003 C 3277.8000000000006 3810.88 3276.670000000001 3812.3100000000004 3275.890000000001 3814.2300000000005 C 3275.120000000001 3816.1500000000005 3274.7200000000007 3819.4100000000003 3274.7200000000007 3823.9900000000007 L 3274.7200000000007 3825.9700000000007 C 3274.770000000001 3826.870000000001 3274.790000000001 3827.7600000000007 3274.790000000001 3828.6500000000005 C 3274.790000000001 3835.5200000000004 3274.210000000001 3840.5000000000005 3273.080000000001 3843.5500000000006 C 3271.9300000000007 3846.620000000001 3270.360000000001 3848.9600000000005 3268.340000000001 3850.5900000000006 C 3266.830000000001 3851.8400000000006 3264.790000000001 3852.7700000000004 3262.190000000001 3853.390000000001 C 3258.750000000001 3854.2000000000007 3254.820000000001 3854.620000000001 3250.420000000001 3854.620000000001 L 3242.590000000001 3854.620000000001" stroke-linecap="round" />
</g>
</g>
</g>
<g transform="matrix(1.9211538461538462 0 0 1.9211538461538462 641.9979999999999 705.1853834702125)" id="text-logo-path-group"  >
<g style=""  paint-order="stroke"   >
		<g transform="matrix(1 0 0 1 0 0)" id="text-logo-path-0"  >
<path style="stroke: none; stroke-width: 0; stroke-dasharray: none; stroke-linecap: butt; stroke-dashoffset: 0; stroke-linejoin: miter; stroke-miterlimit: 4; fill: rgb(14,15,14); fill-rule: nonzero; opacity: 1;"  paint-order="stroke"  transform=" translate(-180.44, 24.608565631862724)" d="M 42.88 -49.6 L 39.44 -49.6 L 27.2 -25.84 L 16.16 -46.4 C 14.88 -48.64 14.08 -49.6 10.48 -49.6 L 4.32 -49.6 L 4.32 0 L 14.48 0 L 14.48 -31.04 L 22.88 -14.16 L 29.76 -14.16 L 38.8 -31.84 L 38.8 0 L 49.92 0 L 49.92 -42.96 C 49.92 -47.68 47.92 -49.6 42.88 -49.6 Z M 71.6 0 L 71.6 -49.6 L 60 -49.6 L 60 0 Z M 111.84 0 L 120 0 L 120 -49.6 L 110.08 -49.6 L 110.08 -19.84 L 89.84 -49.6 L 81.76 -49.6 L 81.76 0 L 91.68 0 L 91.68 -29.76 Z M 153.12 -40 C 153.84 -40 154.24 -39.68 154.24 -38.88 L 154.24 -10.72 C 154.24 -9.92 153.84 -9.6 153.12 -9.6 L 140.88 -9.6 L 140.88 -40 Z M 129.28 0 L 151.52 0.4 C 161.28 0.56 165.92 -3.52 165.92 -12.48 L 165.92 -37.12 C 165.92 -46.08 161.28 -50.16 151.52 -50 L 129.28 -49.6 Z M 192.64 0.8 C 198.72 0.8 201.76 -1.28 202.48 -6.4 C 203.2 -1.28 206.24 0.8 212.32 0.8 L 219.68 0.8 C 226.64 0.8 229.76 -1.92 229.76 -8.96 L 229.6 -49.6 L 218.16 -49.6 L 218.32 -10.72 C 218.32 -10 218 -9.6 217.2 -9.6 L 209.04 -9.6 C 208.24 -9.6 208 -9.92 208 -10.72 L 208 -49.6 L 197.04 -49.6 L 197.04 -10.72 C 197.04 -10 196.72 -9.6 195.92 -9.6 L 188 -9.6 C 187.2 -9.6 186.88 -9.92 186.88 -10.72 L 186.88 -49.6 L 175.36 -49.6 L 175.36 -8.96 C 175.36 -1.92 178.48 0.8 185.44 0.8 Z M 278.4 0 L 267.92 -49.6 L 256.64 -50 C 249.44 -50.24 247.36 -48 245.6 -40.64 L 235.44 0 L 246.24 0 L 248.72 -11.04 L 264.72 -11.04 L 266.88 0 Z M 255.04 -38.56 C 255.2 -39.36 255.36 -39.68 256.16 -39.68 L 259.12 -39.68 L 262.8 -20.96 L 250.96 -20.96 Z M 311.52 -8.96 L 320.8 -49.6 L 310 -49.6 L 301.76 -11.2 C 301.6 -10.4 301.44 -10.08 300.64 -10.08 L 297.92 -10.08 L 290.48 -49.6 L 279.12 -49.6 L 288.96 0 L 301.36 0.32 C 308.4 0.48 309.84 -1.92 311.52 -8.96 Z M 356.56 0 L 356.56 -10.08 L 337.76 -10.08 L 337.76 -20.16 L 354.64 -20.16 L 354.64 -30.08 L 337.76 -30.08 L 337.76 -39.52 L 356.16 -39.52 L 356.16 -49.6 L 326.16 -49.6 L 326.16 0 Z" stroke-linecap="round" />
</g>
</g>
</g>
</svg>